<mxfile host="Electron" modified="2024-07-08T10:13:15.398Z" agent="Mozilla/5.0 (Windows NT 10.0; Win64; x64) AppleWebKit/537.36 (KHTML, like Gecko) draw.io/24.5.3 Chrome/124.0.6367.207 Electron/30.0.6 Safari/537.36" etag="rQ30Y3C_s4dCRGfdCckf" version="24.5.3" type="device">
  <diagram name="Page-1" id="Q1NYKUoYp3TI7mR3DrY6">
    <mxGraphModel dx="1615" dy="955" grid="1" gridSize="10" guides="1" tooltips="1" connect="1" arrows="1" fold="1" page="1" pageScale="1" pageWidth="900" pageHeight="1600" math="0" shadow="0">
      <root>
        <mxCell id="0" />
        <mxCell id="1" parent="0" />
        <mxCell id="3dc5dSCGLDWLTpN_l9aW-148" value="" style="rounded=0;whiteSpace=wrap;html=1;fontSize=15;" vertex="1" parent="1">
          <mxGeometry x="20" y="1477" width="700" height="80" as="geometry" />
        </mxCell>
        <mxCell id="3dc5dSCGLDWLTpN_l9aW-146" value="" style="rounded=0;whiteSpace=wrap;html=1;fontSize=15;fillColor=#f5f5f5;fontColor=#333333;strokeColor=#666666;" vertex="1" parent="1">
          <mxGeometry x="20" y="1397" width="700" height="80" as="geometry" />
        </mxCell>
        <mxCell id="3dc5dSCGLDWLTpN_l9aW-144" value="" style="rounded=0;whiteSpace=wrap;html=1;fontSize=15;" vertex="1" parent="1">
          <mxGeometry x="20" y="1317" width="700" height="80" as="geometry" />
        </mxCell>
        <mxCell id="3dc5dSCGLDWLTpN_l9aW-142" value="" style="rounded=0;whiteSpace=wrap;html=1;fontSize=15;fillColor=#f5f5f5;fontColor=#333333;strokeColor=#666666;" vertex="1" parent="1">
          <mxGeometry x="20" y="1247" width="700" height="70" as="geometry" />
        </mxCell>
        <mxCell id="3dc5dSCGLDWLTpN_l9aW-140" value="" style="rounded=0;whiteSpace=wrap;html=1;fontSize=15;" vertex="1" parent="1">
          <mxGeometry x="20" y="1177" width="700" height="70" as="geometry" />
        </mxCell>
        <mxCell id="3dc5dSCGLDWLTpN_l9aW-138" value="" style="rounded=0;whiteSpace=wrap;html=1;fontSize=15;fillColor=#f5f5f5;fontColor=#333333;strokeColor=#666666;" vertex="1" parent="1">
          <mxGeometry x="20" y="1040" width="700" height="140" as="geometry" />
        </mxCell>
        <mxCell id="3dc5dSCGLDWLTpN_l9aW-136" value="" style="rounded=0;whiteSpace=wrap;html=1;fontSize=15;" vertex="1" parent="1">
          <mxGeometry x="20" y="920" width="700" height="120" as="geometry" />
        </mxCell>
        <mxCell id="3dc5dSCGLDWLTpN_l9aW-134" value="" style="rounded=0;whiteSpace=wrap;html=1;fontSize=15;fillColor=#f5f5f5;fontColor=#333333;strokeColor=#666666;" vertex="1" parent="1">
          <mxGeometry x="20" y="770" width="700" height="150" as="geometry" />
        </mxCell>
        <mxCell id="3dc5dSCGLDWLTpN_l9aW-132" value="" style="rounded=0;whiteSpace=wrap;html=1;fontSize=15;" vertex="1" parent="1">
          <mxGeometry x="20" y="620" width="700" height="150" as="geometry" />
        </mxCell>
        <mxCell id="3dc5dSCGLDWLTpN_l9aW-125" value="" style="rounded=0;whiteSpace=wrap;html=1;fontSize=15;fillColor=#f5f5f5;fontColor=#333333;strokeColor=#666666;" vertex="1" parent="1">
          <mxGeometry x="20" y="500" width="700" height="120" as="geometry" />
        </mxCell>
        <mxCell id="3dc5dSCGLDWLTpN_l9aW-123" value="" style="rounded=0;whiteSpace=wrap;html=1;fontSize=15;" vertex="1" parent="1">
          <mxGeometry x="20" y="290" width="700" height="210" as="geometry" />
        </mxCell>
        <mxCell id="3dc5dSCGLDWLTpN_l9aW-120" value="" style="rounded=0;whiteSpace=wrap;html=1;fontSize=15;fillColor=#f5f5f5;fontColor=#333333;strokeColor=#666666;" vertex="1" parent="1">
          <mxGeometry x="20" y="170" width="700" height="120" as="geometry" />
        </mxCell>
        <mxCell id="3dc5dSCGLDWLTpN_l9aW-118" value="" style="rounded=0;whiteSpace=wrap;html=1;fontSize=15;" vertex="1" parent="1">
          <mxGeometry x="20" y="10" width="700" height="160" as="geometry" />
        </mxCell>
        <mxCell id="3dc5dSCGLDWLTpN_l9aW-5" value="" style="group;fontSize=15;" vertex="1" connectable="0" parent="1">
          <mxGeometry x="140" y="50" width="120" height="90" as="geometry" />
        </mxCell>
        <mxCell id="3dc5dSCGLDWLTpN_l9aW-1" value="" style="shape=or;whiteSpace=wrap;html=1;fontSize=15;fillColor=#f8cecc;strokeColor=#b85450;" vertex="1" parent="3dc5dSCGLDWLTpN_l9aW-5">
          <mxGeometry x="30" width="90" height="90" as="geometry" />
        </mxCell>
        <mxCell id="3dc5dSCGLDWLTpN_l9aW-2" value="" style="ellipse;whiteSpace=wrap;html=1;aspect=fixed;fontSize=15;fillColor=#f8cecc;strokeColor=#b85450;" vertex="1" parent="3dc5dSCGLDWLTpN_l9aW-5">
          <mxGeometry y="60" width="30" height="30" as="geometry" />
        </mxCell>
        <mxCell id="3dc5dSCGLDWLTpN_l9aW-10" value="" style="edgeStyle=orthogonalEdgeStyle;rounded=0;orthogonalLoop=1;jettySize=auto;html=1;entryX=0.01;entryY=0.173;entryDx=0;entryDy=0;entryPerimeter=0;fontSize=15;" edge="1" parent="1" source="3dc5dSCGLDWLTpN_l9aW-7" target="3dc5dSCGLDWLTpN_l9aW-1">
          <mxGeometry relative="1" as="geometry" />
        </mxCell>
        <mxCell id="3dc5dSCGLDWLTpN_l9aW-7" value="&lt;font style=&quot;font-size: 15px;&quot;&gt;rs1&lt;/font&gt;" style="text;html=1;align=center;verticalAlign=middle;whiteSpace=wrap;rounded=0;fontSize=15;" vertex="1" parent="1">
          <mxGeometry x="30" y="50" width="40" height="30" as="geometry" />
        </mxCell>
        <mxCell id="3dc5dSCGLDWLTpN_l9aW-9" value="" style="edgeStyle=orthogonalEdgeStyle;rounded=0;orthogonalLoop=1;jettySize=auto;html=1;fontSize=15;" edge="1" parent="1" source="3dc5dSCGLDWLTpN_l9aW-8" target="3dc5dSCGLDWLTpN_l9aW-2">
          <mxGeometry relative="1" as="geometry" />
        </mxCell>
        <mxCell id="3dc5dSCGLDWLTpN_l9aW-8" value="&lt;font style=&quot;font-size: 15px;&quot;&gt;rs2&lt;/font&gt;" style="text;html=1;align=center;verticalAlign=middle;whiteSpace=wrap;rounded=0;fontSize=15;" vertex="1" parent="1">
          <mxGeometry x="30" y="110" width="40" height="30" as="geometry" />
        </mxCell>
        <mxCell id="3dc5dSCGLDWLTpN_l9aW-40" value="" style="group;fontSize=15;" vertex="1" connectable="0" parent="1">
          <mxGeometry x="30" y="300" width="600" height="202.5" as="geometry" />
        </mxCell>
        <mxCell id="3dc5dSCGLDWLTpN_l9aW-30" style="edgeStyle=orthogonalEdgeStyle;rounded=0;orthogonalLoop=1;jettySize=auto;html=1;entryX=0.25;entryY=1;entryDx=0;entryDy=0;fontSize=15;" edge="1" parent="3dc5dSCGLDWLTpN_l9aW-40" source="3dc5dSCGLDWLTpN_l9aW-11" target="3dc5dSCGLDWLTpN_l9aW-27">
          <mxGeometry relative="1" as="geometry" />
        </mxCell>
        <mxCell id="3dc5dSCGLDWLTpN_l9aW-11" value="Priority Encoder" style="rounded=0;whiteSpace=wrap;html=1;fontSize=15;fillColor=#e1d5e7;strokeColor=#9673a6;" vertex="1" parent="3dc5dSCGLDWLTpN_l9aW-40">
          <mxGeometry x="380" y="2.5" width="120" height="60" as="geometry" />
        </mxCell>
        <mxCell id="3dc5dSCGLDWLTpN_l9aW-24" value="" style="edgeStyle=orthogonalEdgeStyle;rounded=0;orthogonalLoop=1;jettySize=auto;html=1;fontSize=15;" edge="1" parent="3dc5dSCGLDWLTpN_l9aW-40" source="3dc5dSCGLDWLTpN_l9aW-14" target="3dc5dSCGLDWLTpN_l9aW-11">
          <mxGeometry relative="1" as="geometry" />
        </mxCell>
        <mxCell id="3dc5dSCGLDWLTpN_l9aW-26" style="edgeStyle=orthogonalEdgeStyle;rounded=0;orthogonalLoop=1;jettySize=auto;html=1;entryX=0;entryY=0.5;entryDx=0;entryDy=0;fontSize=15;" edge="1" parent="3dc5dSCGLDWLTpN_l9aW-40" source="3dc5dSCGLDWLTpN_l9aW-14" target="3dc5dSCGLDWLTpN_l9aW-25">
          <mxGeometry relative="1" as="geometry" />
        </mxCell>
        <mxCell id="3dc5dSCGLDWLTpN_l9aW-14" value="" style="shape=trapezoid;perimeter=trapezoidPerimeter;whiteSpace=wrap;html=1;fixedSize=1;rotation=90;fontSize=15;fillColor=#dae8fc;strokeColor=#6c8ebf;" vertex="1" parent="3dc5dSCGLDWLTpN_l9aW-40">
          <mxGeometry x="210" y="40" width="130" height="50" as="geometry" />
        </mxCell>
        <mxCell id="3dc5dSCGLDWLTpN_l9aW-15" value="" style="triangle;whiteSpace=wrap;html=1;fontSize=15;fillColor=#f8cecc;strokeColor=#b85450;" vertex="1" parent="3dc5dSCGLDWLTpN_l9aW-40">
          <mxGeometry x="190" y="82.5" width="30" height="35" as="geometry" />
        </mxCell>
        <mxCell id="3dc5dSCGLDWLTpN_l9aW-16" value="" style="ellipse;whiteSpace=wrap;html=1;aspect=fixed;fontSize=15;fillColor=#f8cecc;strokeColor=#b85450;" vertex="1" parent="3dc5dSCGLDWLTpN_l9aW-40">
          <mxGeometry x="220" y="85" width="30" height="30" as="geometry" />
        </mxCell>
        <mxCell id="3dc5dSCGLDWLTpN_l9aW-20" style="edgeStyle=orthogonalEdgeStyle;rounded=0;orthogonalLoop=1;jettySize=auto;html=1;entryX=0;entryY=0.5;entryDx=0;entryDy=0;fontSize=15;" edge="1" parent="3dc5dSCGLDWLTpN_l9aW-40" source="3dc5dSCGLDWLTpN_l9aW-18" target="3dc5dSCGLDWLTpN_l9aW-15">
          <mxGeometry relative="1" as="geometry" />
        </mxCell>
        <mxCell id="3dc5dSCGLDWLTpN_l9aW-18" value="reverse bit order" style="rounded=0;whiteSpace=wrap;html=1;fontSize=15;fillColor=#ffe6cc;strokeColor=#d79b00;" vertex="1" parent="3dc5dSCGLDWLTpN_l9aW-40">
          <mxGeometry x="80" y="67.5" width="80" height="65" as="geometry" />
        </mxCell>
        <mxCell id="3dc5dSCGLDWLTpN_l9aW-22" value="" style="edgeStyle=orthogonalEdgeStyle;rounded=0;orthogonalLoop=1;jettySize=auto;html=1;fontSize=15;" edge="1" parent="3dc5dSCGLDWLTpN_l9aW-40" source="3dc5dSCGLDWLTpN_l9aW-21" target="3dc5dSCGLDWLTpN_l9aW-18">
          <mxGeometry relative="1" as="geometry" />
        </mxCell>
        <mxCell id="3dc5dSCGLDWLTpN_l9aW-23" style="edgeStyle=orthogonalEdgeStyle;rounded=0;orthogonalLoop=1;jettySize=auto;html=1;entryX=0.25;entryY=1;entryDx=0;entryDy=0;fontSize=15;" edge="1" parent="3dc5dSCGLDWLTpN_l9aW-40" source="3dc5dSCGLDWLTpN_l9aW-21" target="3dc5dSCGLDWLTpN_l9aW-14">
          <mxGeometry relative="1" as="geometry">
            <Array as="points">
              <mxPoint x="60" y="100" />
              <mxPoint x="60" y="33" />
            </Array>
          </mxGeometry>
        </mxCell>
        <mxCell id="3dc5dSCGLDWLTpN_l9aW-21" value="&lt;font style=&quot;font-size: 15px;&quot;&gt;rs1&lt;/font&gt;" style="text;html=1;align=center;verticalAlign=middle;whiteSpace=wrap;rounded=0;fontSize=15;" vertex="1" parent="3dc5dSCGLDWLTpN_l9aW-40">
          <mxGeometry y="85" width="40" height="30" as="geometry" />
        </mxCell>
        <mxCell id="3dc5dSCGLDWLTpN_l9aW-28" style="edgeStyle=orthogonalEdgeStyle;rounded=0;orthogonalLoop=1;jettySize=auto;html=1;entryX=1;entryY=0.5;entryDx=0;entryDy=0;fontSize=15;" edge="1" parent="3dc5dSCGLDWLTpN_l9aW-40" source="3dc5dSCGLDWLTpN_l9aW-25" target="3dc5dSCGLDWLTpN_l9aW-27">
          <mxGeometry relative="1" as="geometry">
            <Array as="points">
              <mxPoint x="575" y="142.5" />
            </Array>
          </mxGeometry>
        </mxCell>
        <mxCell id="3dc5dSCGLDWLTpN_l9aW-25" value="is zero" style="ellipse;whiteSpace=wrap;html=1;aspect=fixed;fontSize=15;fillColor=#ffe6cc;strokeColor=#d79b00;" vertex="1" parent="3dc5dSCGLDWLTpN_l9aW-40">
          <mxGeometry x="380" y="102.5" width="80" height="80" as="geometry" />
        </mxCell>
        <mxCell id="3dc5dSCGLDWLTpN_l9aW-27" value="" style="shape=trapezoid;perimeter=trapezoidPerimeter;whiteSpace=wrap;html=1;fixedSize=1;rotation=90;fontSize=15;fillColor=#dae8fc;strokeColor=#6c8ebf;" vertex="1" parent="3dc5dSCGLDWLTpN_l9aW-40">
          <mxGeometry x="510" y="40" width="130" height="50" as="geometry" />
        </mxCell>
        <mxCell id="3dc5dSCGLDWLTpN_l9aW-33" style="edgeStyle=orthogonalEdgeStyle;rounded=0;orthogonalLoop=1;jettySize=auto;html=1;entryX=0.75;entryY=1;entryDx=0;entryDy=0;fontSize=15;" edge="1" parent="3dc5dSCGLDWLTpN_l9aW-40" source="3dc5dSCGLDWLTpN_l9aW-31" target="3dc5dSCGLDWLTpN_l9aW-27">
          <mxGeometry relative="1" as="geometry" />
        </mxCell>
        <mxCell id="3dc5dSCGLDWLTpN_l9aW-31" value="32&#39;b0" style="text;html=1;align=center;verticalAlign=middle;whiteSpace=wrap;rounded=0;fontSize=15;" vertex="1" parent="3dc5dSCGLDWLTpN_l9aW-40">
          <mxGeometry x="470" y="82.5" width="60" height="30" as="geometry" />
        </mxCell>
        <mxCell id="3dc5dSCGLDWLTpN_l9aW-34" value="0" style="text;html=1;align=center;verticalAlign=middle;whiteSpace=wrap;rounded=0;fontSize=15;" vertex="1" parent="3dc5dSCGLDWLTpN_l9aW-40">
          <mxGeometry x="560" y="17.5" width="30" height="30" as="geometry" />
        </mxCell>
        <mxCell id="3dc5dSCGLDWLTpN_l9aW-35" value="1" style="text;html=1;align=center;verticalAlign=middle;whiteSpace=wrap;rounded=0;fontSize=15;" vertex="1" parent="3dc5dSCGLDWLTpN_l9aW-40">
          <mxGeometry x="560" y="82.5" width="30" height="30" as="geometry" />
        </mxCell>
        <mxCell id="3dc5dSCGLDWLTpN_l9aW-36" value="0" style="text;html=1;align=center;verticalAlign=middle;whiteSpace=wrap;rounded=0;fontSize=15;" vertex="1" parent="3dc5dSCGLDWLTpN_l9aW-40">
          <mxGeometry x="260" y="17.5" width="30" height="30" as="geometry" />
        </mxCell>
        <mxCell id="3dc5dSCGLDWLTpN_l9aW-37" value="1" style="text;html=1;align=center;verticalAlign=middle;whiteSpace=wrap;rounded=0;fontSize=15;" vertex="1" parent="3dc5dSCGLDWLTpN_l9aW-40">
          <mxGeometry x="260" y="85" width="30" height="30" as="geometry" />
        </mxCell>
        <mxCell id="3dc5dSCGLDWLTpN_l9aW-39" value="" style="edgeStyle=orthogonalEdgeStyle;rounded=0;orthogonalLoop=1;jettySize=auto;html=1;fontSize=15;" edge="1" parent="3dc5dSCGLDWLTpN_l9aW-40" source="3dc5dSCGLDWLTpN_l9aW-38" target="3dc5dSCGLDWLTpN_l9aW-37">
          <mxGeometry relative="1" as="geometry" />
        </mxCell>
        <mxCell id="3dc5dSCGLDWLTpN_l9aW-38" value="is CLZ" style="text;html=1;align=center;verticalAlign=middle;whiteSpace=wrap;rounded=0;fontSize=15;" vertex="1" parent="3dc5dSCGLDWLTpN_l9aW-40">
          <mxGeometry x="245" y="172.5" width="60" height="30" as="geometry" />
        </mxCell>
        <mxCell id="3dc5dSCGLDWLTpN_l9aW-69" style="edgeStyle=orthogonalEdgeStyle;rounded=0;orthogonalLoop=1;jettySize=auto;html=1;exitX=1;exitY=0;exitDx=0;exitDy=0;fontSize=15;" edge="1" parent="1" source="3dc5dSCGLDWLTpN_l9aW-63" target="3dc5dSCGLDWLTpN_l9aW-68">
          <mxGeometry relative="1" as="geometry" />
        </mxCell>
        <mxCell id="3dc5dSCGLDWLTpN_l9aW-74" value="MSB 32 bits" style="edgeLabel;html=1;align=center;verticalAlign=middle;resizable=0;points=[];fontSize=15;" vertex="1" connectable="0" parent="3dc5dSCGLDWLTpN_l9aW-69">
          <mxGeometry x="0.1836" y="1" relative="1" as="geometry">
            <mxPoint x="-3" y="1" as="offset" />
          </mxGeometry>
        </mxCell>
        <mxCell id="3dc5dSCGLDWLTpN_l9aW-71" style="edgeStyle=orthogonalEdgeStyle;rounded=0;orthogonalLoop=1;jettySize=auto;html=1;fontSize=15;" edge="1" parent="1" source="3dc5dSCGLDWLTpN_l9aW-63" target="3dc5dSCGLDWLTpN_l9aW-70">
          <mxGeometry relative="1" as="geometry" />
        </mxCell>
        <mxCell id="3dc5dSCGLDWLTpN_l9aW-75" value="LSB 32 bits" style="edgeLabel;html=1;align=center;verticalAlign=middle;resizable=0;points=[];fontSize=15;" vertex="1" connectable="0" parent="3dc5dSCGLDWLTpN_l9aW-71">
          <mxGeometry x="-0.3813" y="-1" relative="1" as="geometry">
            <mxPoint x="15" y="-1" as="offset" />
          </mxGeometry>
        </mxCell>
        <mxCell id="3dc5dSCGLDWLTpN_l9aW-73" style="edgeStyle=orthogonalEdgeStyle;rounded=0;orthogonalLoop=1;jettySize=auto;html=1;exitX=1;exitY=1;exitDx=0;exitDy=0;fontSize=15;" edge="1" parent="1" source="3dc5dSCGLDWLTpN_l9aW-63" target="3dc5dSCGLDWLTpN_l9aW-72">
          <mxGeometry relative="1" as="geometry" />
        </mxCell>
        <mxCell id="3dc5dSCGLDWLTpN_l9aW-77" value="result[62:31]" style="edgeLabel;html=1;align=center;verticalAlign=middle;resizable=0;points=[];fontSize=15;" vertex="1" connectable="0" parent="3dc5dSCGLDWLTpN_l9aW-73">
          <mxGeometry x="0.1187" relative="1" as="geometry">
            <mxPoint x="1" as="offset" />
          </mxGeometry>
        </mxCell>
        <mxCell id="3dc5dSCGLDWLTpN_l9aW-63" value="^*" style="ellipse;whiteSpace=wrap;html=1;aspect=fixed;fontSize=15;fillColor=#d5e8d4;strokeColor=#82b366;" vertex="1" parent="1">
          <mxGeometry x="170" y="170" width="100" height="100" as="geometry" />
        </mxCell>
        <mxCell id="3dc5dSCGLDWLTpN_l9aW-65" style="edgeStyle=orthogonalEdgeStyle;rounded=0;orthogonalLoop=1;jettySize=auto;html=1;entryX=0;entryY=0;entryDx=0;entryDy=0;fontSize=15;" edge="1" parent="1" source="3dc5dSCGLDWLTpN_l9aW-64" target="3dc5dSCGLDWLTpN_l9aW-63">
          <mxGeometry relative="1" as="geometry" />
        </mxCell>
        <mxCell id="3dc5dSCGLDWLTpN_l9aW-64" value="&lt;font style=&quot;font-size: 15px;&quot;&gt;rs1&lt;/font&gt;" style="text;html=1;align=center;verticalAlign=middle;whiteSpace=wrap;rounded=0;fontSize=15;" vertex="1" parent="1">
          <mxGeometry x="30" y="170" width="40" height="30" as="geometry" />
        </mxCell>
        <mxCell id="3dc5dSCGLDWLTpN_l9aW-67" style="edgeStyle=orthogonalEdgeStyle;rounded=0;orthogonalLoop=1;jettySize=auto;html=1;entryX=0;entryY=1;entryDx=0;entryDy=0;fontSize=15;" edge="1" parent="1" source="3dc5dSCGLDWLTpN_l9aW-66" target="3dc5dSCGLDWLTpN_l9aW-63">
          <mxGeometry relative="1" as="geometry" />
        </mxCell>
        <mxCell id="3dc5dSCGLDWLTpN_l9aW-66" value="&lt;font style=&quot;font-size: 15px;&quot;&gt;rs2&lt;/font&gt;" style="text;html=1;align=center;verticalAlign=middle;whiteSpace=wrap;rounded=0;fontSize=15;" vertex="1" parent="1">
          <mxGeometry x="30" y="240" width="40" height="30" as="geometry" />
        </mxCell>
        <mxCell id="3dc5dSCGLDWLTpN_l9aW-68" value="clmulh" style="text;html=1;align=center;verticalAlign=middle;whiteSpace=wrap;rounded=0;fontSize=15;" vertex="1" parent="1">
          <mxGeometry x="382.5" y="170" width="60" height="30" as="geometry" />
        </mxCell>
        <mxCell id="3dc5dSCGLDWLTpN_l9aW-70" value="clmul" style="text;html=1;align=center;verticalAlign=middle;whiteSpace=wrap;rounded=0;fontSize=15;" vertex="1" parent="1">
          <mxGeometry x="382.5" y="205" width="60" height="30" as="geometry" />
        </mxCell>
        <mxCell id="3dc5dSCGLDWLTpN_l9aW-72" value="clmur" style="text;html=1;align=center;verticalAlign=middle;whiteSpace=wrap;rounded=0;fontSize=15;" vertex="1" parent="1">
          <mxGeometry x="382.5" y="240" width="60" height="30" as="geometry" />
        </mxCell>
        <mxCell id="3dc5dSCGLDWLTpN_l9aW-78" value="" style="ellipse;whiteSpace=wrap;html=1;aspect=fixed;fontSize=15;" vertex="1" parent="1">
          <mxGeometry x="155" y="780" width="130" height="130" as="geometry" />
        </mxCell>
        <mxCell id="3dc5dSCGLDWLTpN_l9aW-83" style="edgeStyle=orthogonalEdgeStyle;rounded=0;orthogonalLoop=1;jettySize=auto;html=1;entryX=0;entryY=0.5;entryDx=0;entryDy=0;fontSize=15;" edge="1" parent="1" source="3dc5dSCGLDWLTpN_l9aW-82" target="3dc5dSCGLDWLTpN_l9aW-78">
          <mxGeometry relative="1" as="geometry" />
        </mxCell>
        <mxCell id="3dc5dSCGLDWLTpN_l9aW-82" value="&lt;font style=&quot;font-size: 15px;&quot;&gt;rs1&lt;/font&gt;" style="text;html=1;align=center;verticalAlign=middle;whiteSpace=wrap;rounded=0;fontSize=15;" vertex="1" parent="1">
          <mxGeometry x="40" y="830" width="40" height="30" as="geometry" />
        </mxCell>
        <mxCell id="3dc5dSCGLDWLTpN_l9aW-84" value="" style="shape=xor;whiteSpace=wrap;html=1;fontSize=15;fillColor=#f8cecc;strokeColor=#b85450;" vertex="1" parent="1">
          <mxGeometry x="210" y="817.5" width="50" height="55" as="geometry" />
        </mxCell>
        <mxCell id="3dc5dSCGLDWLTpN_l9aW-86" value="" style="edgeStyle=orthogonalEdgeStyle;rounded=0;orthogonalLoop=1;jettySize=auto;html=1;fontSize=15;" edge="1" parent="1" source="3dc5dSCGLDWLTpN_l9aW-85" target="3dc5dSCGLDWLTpN_l9aW-84">
          <mxGeometry relative="1" as="geometry" />
        </mxCell>
        <mxCell id="3dc5dSCGLDWLTpN_l9aW-85" value="byte" style="text;html=1;align=center;verticalAlign=middle;whiteSpace=wrap;rounded=0;fontSize=15;" vertex="1" parent="1">
          <mxGeometry x="160" y="830" width="30" height="30" as="geometry" />
        </mxCell>
        <mxCell id="3dc5dSCGLDWLTpN_l9aW-87" value="" style="shape=xor;whiteSpace=wrap;html=1;fontSize=15;fillColor=#f8cecc;strokeColor=#b85450;" vertex="1" parent="1">
          <mxGeometry x="189" y="928" width="90" height="110" as="geometry" />
        </mxCell>
        <mxCell id="3dc5dSCGLDWLTpN_l9aW-90" value="" style="edgeStyle=orthogonalEdgeStyle;rounded=0;orthogonalLoop=1;jettySize=auto;html=1;entryX=0.175;entryY=0.25;entryDx=0;entryDy=0;entryPerimeter=0;fontSize=15;" edge="1" parent="1" source="3dc5dSCGLDWLTpN_l9aW-88" target="3dc5dSCGLDWLTpN_l9aW-87">
          <mxGeometry relative="1" as="geometry" />
        </mxCell>
        <mxCell id="3dc5dSCGLDWLTpN_l9aW-88" value="&lt;font style=&quot;font-size: 15px;&quot;&gt;rs1&lt;/font&gt;" style="text;html=1;align=center;verticalAlign=middle;whiteSpace=wrap;rounded=0;fontSize=15;" vertex="1" parent="1">
          <mxGeometry x="40" y="940" width="40" height="30" as="geometry" />
        </mxCell>
        <mxCell id="3dc5dSCGLDWLTpN_l9aW-93" value="" style="edgeStyle=orthogonalEdgeStyle;rounded=0;orthogonalLoop=1;jettySize=auto;html=1;fontSize=15;" edge="1" parent="1" source="3dc5dSCGLDWLTpN_l9aW-89" target="3dc5dSCGLDWLTpN_l9aW-92">
          <mxGeometry relative="1" as="geometry" />
        </mxCell>
        <mxCell id="3dc5dSCGLDWLTpN_l9aW-89" value="&lt;font style=&quot;font-size: 15px;&quot;&gt;rs2&lt;/font&gt;" style="text;html=1;align=center;verticalAlign=middle;whiteSpace=wrap;rounded=0;fontSize=15;" vertex="1" parent="1">
          <mxGeometry x="40" y="995" width="40" height="30" as="geometry" />
        </mxCell>
        <mxCell id="3dc5dSCGLDWLTpN_l9aW-92" value="" style="ellipse;whiteSpace=wrap;html=1;aspect=fixed;fontSize=15;fillColor=#f8cecc;strokeColor=#b85450;" vertex="1" parent="1">
          <mxGeometry x="175" y="995" width="30" height="30" as="geometry" />
        </mxCell>
        <mxCell id="3dc5dSCGLDWLTpN_l9aW-94" value="Rotate sh(i)add, single bit manipulation unit" style="rounded=0;whiteSpace=wrap;html=1;fontSize=15;fillColor=#e1d5e7;strokeColor=#9673a6;" vertex="1" parent="1">
          <mxGeometry x="189" y="1059" width="260" height="100" as="geometry" />
        </mxCell>
        <mxCell id="3dc5dSCGLDWLTpN_l9aW-96" value="" style="edgeStyle=orthogonalEdgeStyle;rounded=0;orthogonalLoop=1;jettySize=auto;html=1;entryX=0;entryY=0.25;entryDx=0;entryDy=0;fontSize=15;" edge="1" parent="1" source="3dc5dSCGLDWLTpN_l9aW-95" target="3dc5dSCGLDWLTpN_l9aW-94">
          <mxGeometry relative="1" as="geometry" />
        </mxCell>
        <mxCell id="3dc5dSCGLDWLTpN_l9aW-95" value="&lt;font style=&quot;font-size: 15px;&quot;&gt;rs1&lt;/font&gt;" style="text;html=1;align=center;verticalAlign=middle;whiteSpace=wrap;rounded=0;fontSize=15;" vertex="1" parent="1">
          <mxGeometry x="40" y="1069" width="40" height="30" as="geometry" />
        </mxCell>
        <mxCell id="3dc5dSCGLDWLTpN_l9aW-98" value="" style="edgeStyle=orthogonalEdgeStyle;rounded=0;orthogonalLoop=1;jettySize=auto;html=1;entryX=0;entryY=0.75;entryDx=0;entryDy=0;fontSize=15;" edge="1" parent="1" source="3dc5dSCGLDWLTpN_l9aW-97" target="3dc5dSCGLDWLTpN_l9aW-94">
          <mxGeometry relative="1" as="geometry" />
        </mxCell>
        <mxCell id="3dc5dSCGLDWLTpN_l9aW-97" value="&lt;font style=&quot;font-size: 15px;&quot;&gt;rs2&lt;/font&gt;" style="text;html=1;align=center;verticalAlign=middle;whiteSpace=wrap;rounded=0;fontSize=15;" vertex="1" parent="1">
          <mxGeometry x="40" y="1119" width="40" height="30" as="geometry" />
        </mxCell>
        <mxCell id="3dc5dSCGLDWLTpN_l9aW-99" value="{24&#39;rs[7],rs[7:0]}" style="rounded=0;whiteSpace=wrap;html=1;fontSize=15;fillColor=#ffe6cc;strokeColor=#d79b00;" vertex="1" parent="1">
          <mxGeometry x="179" y="1183" width="120" height="60" as="geometry" />
        </mxCell>
        <mxCell id="3dc5dSCGLDWLTpN_l9aW-101" value="" style="edgeStyle=orthogonalEdgeStyle;rounded=0;orthogonalLoop=1;jettySize=auto;html=1;fontSize=15;" edge="1" parent="1" source="3dc5dSCGLDWLTpN_l9aW-100" target="3dc5dSCGLDWLTpN_l9aW-99">
          <mxGeometry relative="1" as="geometry" />
        </mxCell>
        <mxCell id="3dc5dSCGLDWLTpN_l9aW-100" value="&lt;font style=&quot;font-size: 15px;&quot;&gt;rs1&lt;/font&gt;" style="text;html=1;align=center;verticalAlign=middle;whiteSpace=wrap;rounded=0;fontSize=15;" vertex="1" parent="1">
          <mxGeometry x="30" y="1198" width="40" height="30" as="geometry" />
        </mxCell>
        <mxCell id="3dc5dSCGLDWLTpN_l9aW-102" value="{16&#39;rs[15],rs[15:0]}" style="rounded=0;whiteSpace=wrap;html=1;fontSize=15;fillColor=#ffe6cc;strokeColor=#d79b00;" vertex="1" parent="1">
          <mxGeometry x="179.5" y="1253" width="120" height="60" as="geometry" />
        </mxCell>
        <mxCell id="3dc5dSCGLDWLTpN_l9aW-103" value="" style="edgeStyle=orthogonalEdgeStyle;rounded=0;orthogonalLoop=1;jettySize=auto;html=1;fontSize=15;" edge="1" parent="1" source="3dc5dSCGLDWLTpN_l9aW-104" target="3dc5dSCGLDWLTpN_l9aW-102">
          <mxGeometry relative="1" as="geometry" />
        </mxCell>
        <mxCell id="3dc5dSCGLDWLTpN_l9aW-104" value="&lt;font style=&quot;font-size: 15px;&quot;&gt;rs1&lt;/font&gt;" style="text;html=1;align=center;verticalAlign=middle;whiteSpace=wrap;rounded=0;fontSize=15;" vertex="1" parent="1">
          <mxGeometry x="30.5" y="1268" width="40" height="30" as="geometry" />
        </mxCell>
        <mxCell id="3dc5dSCGLDWLTpN_l9aW-105" value="" style="verticalLabelPosition=bottom;shadow=0;dashed=0;align=center;html=1;verticalAlign=top;shape=mxgraph.electrical.logic_gates.logic_gate;operation=xor;fontSize=15;fillColor=#f8cecc;strokeColor=#b85450;" vertex="1" parent="1">
          <mxGeometry x="169" y="1327" width="100" height="60" as="geometry" />
        </mxCell>
        <mxCell id="3dc5dSCGLDWLTpN_l9aW-106" value="&lt;font style=&quot;font-size: 15px;&quot;&gt;rs1&lt;/font&gt;" style="text;html=1;align=center;verticalAlign=middle;whiteSpace=wrap;rounded=0;fontSize=15;" vertex="1" parent="1">
          <mxGeometry x="30.5" y="1327" width="40" height="30" as="geometry" />
        </mxCell>
        <mxCell id="3dc5dSCGLDWLTpN_l9aW-108" value="" style="endArrow=none;html=1;rounded=0;entryX=0;entryY=0.25;entryDx=0;entryDy=0;entryPerimeter=0;exitX=1;exitY=0.5;exitDx=0;exitDy=0;fontSize=15;" edge="1" parent="1" source="3dc5dSCGLDWLTpN_l9aW-106" target="3dc5dSCGLDWLTpN_l9aW-105">
          <mxGeometry width="50" height="50" relative="1" as="geometry">
            <mxPoint x="230" y="1397" as="sourcePoint" />
            <mxPoint x="280" y="1347" as="targetPoint" />
          </mxGeometry>
        </mxCell>
        <mxCell id="3dc5dSCGLDWLTpN_l9aW-109" value="&lt;font style=&quot;font-size: 15px;&quot;&gt;rs2&lt;/font&gt;" style="text;html=1;align=center;verticalAlign=middle;whiteSpace=wrap;rounded=0;fontSize=15;" vertex="1" parent="1">
          <mxGeometry x="30.5" y="1357" width="40" height="30" as="geometry" />
        </mxCell>
        <mxCell id="3dc5dSCGLDWLTpN_l9aW-110" value="" style="endArrow=none;html=1;rounded=0;entryX=0;entryY=0.75;entryDx=0;entryDy=0;entryPerimeter=0;exitX=1;exitY=0.5;exitDx=0;exitDy=0;fontSize=15;" edge="1" parent="1" source="3dc5dSCGLDWLTpN_l9aW-109" target="3dc5dSCGLDWLTpN_l9aW-105">
          <mxGeometry width="50" height="50" relative="1" as="geometry">
            <mxPoint x="230" y="1397" as="sourcePoint" />
            <mxPoint x="280" y="1347" as="targetPoint" />
          </mxGeometry>
        </mxCell>
        <mxCell id="3dc5dSCGLDWLTpN_l9aW-111" value="{16&#39;b0,rs[7:0]}" style="rounded=0;whiteSpace=wrap;html=1;fontSize=15;fillColor=#ffe6cc;strokeColor=#d79b00;" vertex="1" parent="1">
          <mxGeometry x="180" y="1407" width="120" height="60" as="geometry" />
        </mxCell>
        <mxCell id="3dc5dSCGLDWLTpN_l9aW-112" value="" style="edgeStyle=orthogonalEdgeStyle;rounded=0;orthogonalLoop=1;jettySize=auto;html=1;fontSize=15;" edge="1" parent="1" source="3dc5dSCGLDWLTpN_l9aW-113" target="3dc5dSCGLDWLTpN_l9aW-111">
          <mxGeometry relative="1" as="geometry" />
        </mxCell>
        <mxCell id="3dc5dSCGLDWLTpN_l9aW-113" value="&lt;font style=&quot;font-size: 15px;&quot;&gt;rs1&lt;/font&gt;" style="text;html=1;align=center;verticalAlign=middle;whiteSpace=wrap;rounded=0;fontSize=15;" vertex="1" parent="1">
          <mxGeometry x="30.5" y="1422" width="40" height="30" as="geometry" />
        </mxCell>
        <mxCell id="3dc5dSCGLDWLTpN_l9aW-115" value="reverse bytes" style="rounded=0;whiteSpace=wrap;html=1;fontSize=15;fillColor=#ffe6cc;strokeColor=#d79b00;" vertex="1" parent="1">
          <mxGeometry x="180" y="1487" width="120" height="60" as="geometry" />
        </mxCell>
        <mxCell id="3dc5dSCGLDWLTpN_l9aW-116" value="" style="edgeStyle=orthogonalEdgeStyle;rounded=0;orthogonalLoop=1;jettySize=auto;html=1;fontSize=15;" edge="1" parent="1" source="3dc5dSCGLDWLTpN_l9aW-117" target="3dc5dSCGLDWLTpN_l9aW-115">
          <mxGeometry relative="1" as="geometry" />
        </mxCell>
        <mxCell id="3dc5dSCGLDWLTpN_l9aW-117" value="&lt;font style=&quot;font-size: 15px;&quot;&gt;rs1&lt;/font&gt;" style="text;html=1;align=center;verticalAlign=middle;whiteSpace=wrap;rounded=0;fontSize=15;" vertex="1" parent="1">
          <mxGeometry x="30.5" y="1502" width="40" height="30" as="geometry" />
        </mxCell>
        <mxCell id="3dc5dSCGLDWLTpN_l9aW-119" value="andn" style="text;html=1;align=center;verticalAlign=middle;whiteSpace=wrap;rounded=0;fontSize=15;" vertex="1" parent="1">
          <mxGeometry x="660" y="10" width="60" height="30" as="geometry" />
        </mxCell>
        <mxCell id="3dc5dSCGLDWLTpN_l9aW-121" value="clmulh&lt;div style=&quot;font-size: 15px;&quot;&gt;clmul&lt;/div&gt;&lt;div style=&quot;font-size: 15px;&quot;&gt;clmulr&lt;/div&gt;" style="text;html=1;align=center;verticalAlign=middle;whiteSpace=wrap;rounded=0;fontSize=15;" vertex="1" parent="1">
          <mxGeometry x="630" y="170" width="90" height="70" as="geometry" />
        </mxCell>
        <mxCell id="3dc5dSCGLDWLTpN_l9aW-124" value="clz&lt;div style=&quot;font-size: 15px;&quot;&gt;ctz&lt;/div&gt;" style="text;html=1;align=center;verticalAlign=middle;whiteSpace=wrap;rounded=0;fontSize=15;" vertex="1" parent="1">
          <mxGeometry x="640" y="290" width="80" height="40" as="geometry" />
        </mxCell>
        <mxCell id="3dc5dSCGLDWLTpN_l9aW-126" value="" style="group;fontSize=15;" vertex="1" connectable="0" parent="1">
          <mxGeometry x="40" y="500" width="290" height="117.5" as="geometry" />
        </mxCell>
        <mxCell id="3dc5dSCGLDWLTpN_l9aW-41" value="32 bit Wallace Tree" style="triangle;whiteSpace=wrap;html=1;fontSize=15;fillColor=#e1d5e7;strokeColor=#9673a6;" vertex="1" parent="3dc5dSCGLDWLTpN_l9aW-126">
          <mxGeometry x="90" width="200" height="117.5" as="geometry" />
        </mxCell>
        <mxCell id="3dc5dSCGLDWLTpN_l9aW-43" value="" style="edgeStyle=orthogonalEdgeStyle;rounded=0;orthogonalLoop=1;jettySize=auto;html=1;fontSize=15;" edge="1" parent="3dc5dSCGLDWLTpN_l9aW-126" source="3dc5dSCGLDWLTpN_l9aW-42" target="3dc5dSCGLDWLTpN_l9aW-41">
          <mxGeometry relative="1" as="geometry" />
        </mxCell>
        <mxCell id="3dc5dSCGLDWLTpN_l9aW-42" value="&lt;font style=&quot;font-size: 15px;&quot;&gt;rs1&lt;/font&gt;" style="text;html=1;align=center;verticalAlign=middle;whiteSpace=wrap;rounded=0;fontSize=15;" vertex="1" parent="3dc5dSCGLDWLTpN_l9aW-126">
          <mxGeometry y="43.75" width="40" height="30" as="geometry" />
        </mxCell>
        <mxCell id="3dc5dSCGLDWLTpN_l9aW-127" value="cpop" style="text;html=1;align=center;verticalAlign=middle;whiteSpace=wrap;rounded=0;fontSize=15;" vertex="1" parent="1">
          <mxGeometry x="640" y="500" width="80" height="40" as="geometry" />
        </mxCell>
        <mxCell id="3dc5dSCGLDWLTpN_l9aW-130" value="" style="group;fontSize=15;" vertex="1" connectable="0" parent="1">
          <mxGeometry x="40" y="600" width="480" height="165" as="geometry" />
        </mxCell>
        <mxCell id="3dc5dSCGLDWLTpN_l9aW-49" value="" style="edgeStyle=orthogonalEdgeStyle;rounded=0;orthogonalLoop=1;jettySize=auto;html=1;fontSize=15;" edge="1" parent="3dc5dSCGLDWLTpN_l9aW-130" source="3dc5dSCGLDWLTpN_l9aW-44" target="3dc5dSCGLDWLTpN_l9aW-47">
          <mxGeometry relative="1" as="geometry">
            <Array as="points">
              <mxPoint x="150" y="40" />
              <mxPoint x="280" y="40" />
            </Array>
          </mxGeometry>
        </mxCell>
        <mxCell id="3dc5dSCGLDWLTpN_l9aW-50" value="flags" style="edgeLabel;html=1;align=center;verticalAlign=middle;resizable=0;points=[];fontSize=15;" vertex="1" connectable="0" parent="3dc5dSCGLDWLTpN_l9aW-49">
          <mxGeometry x="-0.1679" y="-1" relative="1" as="geometry">
            <mxPoint as="offset" />
          </mxGeometry>
        </mxCell>
        <mxCell id="3dc5dSCGLDWLTpN_l9aW-44" value="-" style="ellipse;whiteSpace=wrap;html=1;aspect=fixed;fontSize=15;fillColor=#ffe6cc;strokeColor=#d79b00;" vertex="1" parent="3dc5dSCGLDWLTpN_l9aW-130">
          <mxGeometry x="110" y="65" width="80" height="80" as="geometry" />
        </mxCell>
        <mxCell id="3dc5dSCGLDWLTpN_l9aW-46" value="" style="edgeStyle=orthogonalEdgeStyle;rounded=0;orthogonalLoop=1;jettySize=auto;html=1;entryX=0;entryY=0;entryDx=0;entryDy=0;fontSize=15;" edge="1" parent="3dc5dSCGLDWLTpN_l9aW-130" source="3dc5dSCGLDWLTpN_l9aW-45" target="3dc5dSCGLDWLTpN_l9aW-44">
          <mxGeometry relative="1" as="geometry" />
        </mxCell>
        <mxCell id="3dc5dSCGLDWLTpN_l9aW-45" value="&lt;font style=&quot;font-size: 15px;&quot;&gt;rs1&lt;/font&gt;" style="text;html=1;align=center;verticalAlign=middle;whiteSpace=wrap;rounded=0;fontSize=15;" vertex="1" parent="3dc5dSCGLDWLTpN_l9aW-130">
          <mxGeometry y="61" width="40" height="30" as="geometry" />
        </mxCell>
        <mxCell id="3dc5dSCGLDWLTpN_l9aW-58" style="edgeStyle=orthogonalEdgeStyle;rounded=0;orthogonalLoop=1;jettySize=auto;html=1;entryX=0;entryY=0.5;entryDx=0;entryDy=0;fontSize=15;" edge="1" parent="3dc5dSCGLDWLTpN_l9aW-130" source="3dc5dSCGLDWLTpN_l9aW-47" target="3dc5dSCGLDWLTpN_l9aW-51">
          <mxGeometry relative="1" as="geometry">
            <Array as="points">
              <mxPoint x="350" y="105" />
              <mxPoint x="350" y="30" />
              <mxPoint x="462" y="30" />
            </Array>
          </mxGeometry>
        </mxCell>
        <mxCell id="3dc5dSCGLDWLTpN_l9aW-47" value="compare" style="rounded=0;whiteSpace=wrap;html=1;fontSize=15;fillColor=#e1d5e7;strokeColor=#9673a6;" vertex="1" parent="3dc5dSCGLDWLTpN_l9aW-130">
          <mxGeometry x="220" y="75" width="120" height="60" as="geometry" />
        </mxCell>
        <mxCell id="3dc5dSCGLDWLTpN_l9aW-51" value="" style="shape=trapezoid;perimeter=trapezoidPerimeter;whiteSpace=wrap;html=1;fixedSize=1;rotation=90;fontSize=15;fillColor=#dae8fc;strokeColor=#6c8ebf;" vertex="1" parent="3dc5dSCGLDWLTpN_l9aW-130">
          <mxGeometry x="402.5" y="87.5" width="120" height="35" as="geometry" />
        </mxCell>
        <mxCell id="3dc5dSCGLDWLTpN_l9aW-55" style="edgeStyle=orthogonalEdgeStyle;rounded=0;orthogonalLoop=1;jettySize=auto;html=1;entryX=0;entryY=1;entryDx=0;entryDy=0;fontSize=15;" edge="1" parent="3dc5dSCGLDWLTpN_l9aW-130" source="3dc5dSCGLDWLTpN_l9aW-54" target="3dc5dSCGLDWLTpN_l9aW-44">
          <mxGeometry relative="1" as="geometry" />
        </mxCell>
        <mxCell id="3dc5dSCGLDWLTpN_l9aW-129" value="" style="edgeStyle=orthogonalEdgeStyle;rounded=0;orthogonalLoop=1;jettySize=auto;html=1;fontSize=15;" edge="1" parent="3dc5dSCGLDWLTpN_l9aW-130" source="3dc5dSCGLDWLTpN_l9aW-54">
          <mxGeometry relative="1" as="geometry">
            <mxPoint x="120" y="133" as="targetPoint" />
          </mxGeometry>
        </mxCell>
        <mxCell id="3dc5dSCGLDWLTpN_l9aW-54" value="&lt;font style=&quot;font-size: 15px;&quot;&gt;rs2&lt;/font&gt;" style="text;html=1;align=center;verticalAlign=middle;whiteSpace=wrap;rounded=0;fontSize=15;" vertex="1" parent="3dc5dSCGLDWLTpN_l9aW-130">
          <mxGeometry y="118" width="40" height="30" as="geometry" />
        </mxCell>
        <mxCell id="3dc5dSCGLDWLTpN_l9aW-57" style="edgeStyle=orthogonalEdgeStyle;rounded=0;orthogonalLoop=1;jettySize=auto;html=1;entryX=0.25;entryY=1;entryDx=0;entryDy=0;fontSize=15;" edge="1" parent="3dc5dSCGLDWLTpN_l9aW-130" source="3dc5dSCGLDWLTpN_l9aW-56" target="3dc5dSCGLDWLTpN_l9aW-51">
          <mxGeometry relative="1" as="geometry" />
        </mxCell>
        <mxCell id="3dc5dSCGLDWLTpN_l9aW-56" value="&lt;font style=&quot;font-size: 15px;&quot;&gt;rs1&lt;/font&gt;" style="text;html=1;align=center;verticalAlign=middle;whiteSpace=wrap;rounded=0;fontSize=15;" vertex="1" parent="3dc5dSCGLDWLTpN_l9aW-130">
          <mxGeometry x="370" y="60" width="30" height="30" as="geometry" />
        </mxCell>
        <mxCell id="3dc5dSCGLDWLTpN_l9aW-61" style="edgeStyle=orthogonalEdgeStyle;rounded=0;orthogonalLoop=1;jettySize=auto;html=1;entryX=0.75;entryY=1;entryDx=0;entryDy=0;fontSize=15;" edge="1" parent="3dc5dSCGLDWLTpN_l9aW-130" source="3dc5dSCGLDWLTpN_l9aW-60" target="3dc5dSCGLDWLTpN_l9aW-51">
          <mxGeometry relative="1" as="geometry" />
        </mxCell>
        <mxCell id="3dc5dSCGLDWLTpN_l9aW-60" value="&lt;font style=&quot;font-size: 15px;&quot;&gt;rs2&lt;/font&gt;" style="text;html=1;align=center;verticalAlign=middle;whiteSpace=wrap;rounded=0;fontSize=15;" vertex="1" parent="3dc5dSCGLDWLTpN_l9aW-130">
          <mxGeometry x="370" y="120" width="30" height="30" as="geometry" />
        </mxCell>
        <mxCell id="3dc5dSCGLDWLTpN_l9aW-133" value="max umax&lt;div style=&quot;font-size: 15px;&quot;&gt;min umin&lt;/div&gt;" style="text;html=1;align=center;verticalAlign=middle;whiteSpace=wrap;rounded=0;fontSize=15;" vertex="1" parent="1">
          <mxGeometry x="640" y="620" width="80" height="40" as="geometry" />
        </mxCell>
        <mxCell id="3dc5dSCGLDWLTpN_l9aW-135" value="orc" style="text;html=1;align=center;verticalAlign=middle;whiteSpace=wrap;rounded=0;fontSize=15;" vertex="1" parent="1">
          <mxGeometry x="640" y="770" width="80" height="40" as="geometry" />
        </mxCell>
        <mxCell id="3dc5dSCGLDWLTpN_l9aW-137" value="orn" style="text;html=1;align=center;verticalAlign=middle;whiteSpace=wrap;rounded=0;fontSize=15;" vertex="1" parent="1">
          <mxGeometry x="640" y="920" width="80" height="40" as="geometry" />
        </mxCell>
        <mxCell id="3dc5dSCGLDWLTpN_l9aW-139" value="rol ror rori&lt;div style=&quot;font-size: 15px;&quot;&gt;bclr bclri&lt;/div&gt;&lt;div style=&quot;font-size: 15px;&quot;&gt;&amp;nbsp;bext bexti&lt;/div&gt;&lt;div style=&quot;font-size: 15px;&quot;&gt;binv binvi&lt;/div&gt;&lt;div style=&quot;font-size: 15px;&quot;&gt;bset besti&lt;/div&gt;&lt;div style=&quot;font-size: 15px;&quot;&gt;sha1add sh2add sh3add&lt;/div&gt;" style="text;html=1;align=center;verticalAlign=middle;whiteSpace=wrap;rounded=0;fontSize=15;" vertex="1" parent="1">
          <mxGeometry x="580" y="1049" width="140" height="120" as="geometry" />
        </mxCell>
        <mxCell id="3dc5dSCGLDWLTpN_l9aW-141" value="sext.b" style="text;html=1;align=center;verticalAlign=middle;whiteSpace=wrap;rounded=0;fontSize=15;" vertex="1" parent="1">
          <mxGeometry x="640" y="1177" width="80" height="40" as="geometry" />
        </mxCell>
        <mxCell id="3dc5dSCGLDWLTpN_l9aW-143" value="sext.h" style="text;html=1;align=center;verticalAlign=middle;whiteSpace=wrap;rounded=0;fontSize=15;" vertex="1" parent="1">
          <mxGeometry x="640" y="1247" width="80" height="40" as="geometry" />
        </mxCell>
        <mxCell id="3dc5dSCGLDWLTpN_l9aW-145" value="xnor" style="text;html=1;align=center;verticalAlign=middle;whiteSpace=wrap;rounded=0;fontSize=15;" vertex="1" parent="1">
          <mxGeometry x="640" y="1317" width="80" height="40" as="geometry" />
        </mxCell>
        <mxCell id="3dc5dSCGLDWLTpN_l9aW-147" value="zext" style="text;html=1;align=center;verticalAlign=middle;whiteSpace=wrap;rounded=0;fontSize=15;" vertex="1" parent="1">
          <mxGeometry x="640" y="1397" width="80" height="40" as="geometry" />
        </mxCell>
        <mxCell id="3dc5dSCGLDWLTpN_l9aW-149" value="rev8" style="text;html=1;align=center;verticalAlign=middle;whiteSpace=wrap;rounded=0;fontSize=15;" vertex="1" parent="1">
          <mxGeometry x="640" y="1477" width="80" height="40" as="geometry" />
        </mxCell>
      </root>
    </mxGraphModel>
  </diagram>
</mxfile>
